<?xml version="1.0" encoding="UTF-8"?>
<svg id="Layer_1" data-name="Layer 1" xmlns="http://www.w3.org/2000/svg" viewBox="0 0 328.03 126">
  <defs>
    <style>
      .cls-1, .cls-2, .cls-3, .cls-4, .cls-5 {
        isolation: isolate;
      }

      .cls-1, .cls-3, .cls-4 {
        font-family: TimesNewRomanPSMT, 'Times New Roman';
        font-size: 9.22px;
      }

      .cls-3 {
        letter-spacing: -.02em;
      }

      .cls-4 {
        letter-spacing: -.06em;
      }

      .cls-5 {
        font-family: ArialMT, Arial;
        font-size: 9.46px;
      }

      .cls-6 {
        fill: none;
        stroke: #000;
        stroke-miterlimit: 10;
        stroke-width: .5px;
      }
    </style>
  </defs>
  <path class="cls-6" d="M10.85,11.52h308.85"/>
  <g class="cls-2">
    <text class="cls-1" transform="translate(10.85 22.73)"><tspan x="0" y="0">C</tspan></text>
    <text class="cls-1" transform="translate(19.8 22.73)"><tspan x="0" y="0">d</tspan></text>
    <text class="cls-1" transform="translate(24.93 22.73)"><tspan x="0" y="0">e</tspan></text>
    <text class="cls-1" transform="translate(29.54 22.73)"><tspan x="0" y="0">c</tspan></text>
    <text class="cls-1" transform="translate(33.63 22.73)"><tspan x="0" y="0">l</tspan></text>
    <text class="cls-1" transform="translate(36.19 22.73)"><tspan x="0" y="0">a</tspan></text>
    <text class="cls-1" transform="translate(40.8 22.73)"><tspan x="0" y="0">r</tspan></text>
    <text class="cls-1" transform="translate(44.38 22.73)"><tspan x="0" y="0">a</tspan></text>
    <text class="cls-1" transform="translate(48.99 22.73)"><tspan x="0" y="0">t</tspan></text>
    <text class="cls-1" transform="translate(52.06 22.73)"><tspan x="0" y="0">i</tspan></text>
    <text class="cls-1" transform="translate(54.62 22.73)"><tspan x="0" y="0">o</tspan></text>
    <text class="cls-1" transform="translate(59.74 22.73)"><tspan x="0" y="0">n</tspan></text>
    <text class="cls-1" transform="translate(82.8 22.73)"><tspan x="0" y="0">I</tspan></text>
    <text class="cls-1" transform="translate(86.39 22.73)"><tspan x="0" y="0">n</tspan></text>
    <text class="cls-1" transform="translate(91.51 22.73)"><tspan x="0" y="0">t</tspan></text>
    <text class="cls-1" transform="translate(94.58 22.73)"><tspan x="0" y="0">e</tspan></text>
    <text class="cls-1" transform="translate(99.19 22.73)"><tspan x="0" y="0">l</tspan></text>
    <text class="cls-1" transform="translate(104.05 22.73)"><tspan x="0" y="0">d</tspan></text>
    <text class="cls-1" transform="translate(109.17 22.73)"><tspan x="0" y="0">a</tspan></text>
    <text class="cls-1" transform="translate(113.78 22.73)"><tspan x="0" y="0">t</tspan></text>
    <text class="cls-1" transform="translate(116.85 22.73)"><tspan x="0" y="0">a</tspan></text>
    <text class="cls-1" transform="translate(123.76 22.73)"><tspan x="0" y="0">t</tspan></text>
    <text class="cls-1" transform="translate(126.83 22.73)"><tspan x="0" y="0">y</tspan></text>
    <text class="cls-1" transform="translate(131.44 22.73)"><tspan x="0" y="0">p</tspan></text>
    <text class="cls-1" transform="translate(136.56 22.73)"><tspan x="0" y="0">e</tspan></text>
    <text class="cls-4" transform="translate(169.62 22.73)"><tspan x="0" y="0">A</tspan></text>
    <text class="cls-1" transform="translate(177.34 22.73)"><tspan x="0" y="0">s</tspan></text>
    <text class="cls-1" transform="translate(180.93 22.73)"><tspan x="0" y="0">s</tspan></text>
    <text class="cls-1" transform="translate(184.51 22.73)"><tspan x="0" y="0">e</tspan></text>
    <text class="cls-1" transform="translate(189.12 22.73)"><tspan x="0" y="0">m</tspan></text>
    <text class="cls-1" transform="translate(196.79 22.73)"><tspan x="0" y="0">b</tspan></text>
    <text class="cls-1" transform="translate(201.92 22.73)"><tspan x="0" y="0">l</tspan></text>
    <text class="cls-1" transform="translate(204.48 22.73)"><tspan x="0" y="0">y</tspan></text>
    <text class="cls-1" transform="translate(209.09 22.73)"><tspan x="0" y="0">-</tspan></text>
    <text class="cls-1" transform="translate(212.16 22.73)"><tspan x="0" y="0">c</tspan></text>
    <text class="cls-1" transform="translate(216.25 22.73)"><tspan x="0" y="0">o</tspan></text>
    <text class="cls-1" transform="translate(221.37 22.73)"><tspan x="0" y="0">d</tspan></text>
    <text class="cls-1" transform="translate(226.5 22.73)"><tspan x="0" y="0">e</tspan></text>
    <text class="cls-1" transform="translate(233.41 22.73)"><tspan x="0" y="0">s</tspan></text>
    <text class="cls-1" transform="translate(236.99 22.73)"><tspan x="0" y="0">u</tspan></text>
    <text class="cls-1" transform="translate(242.12 22.73)"><tspan x="0" y="0">f</tspan></text>
    <text class="cls-1" transform="translate(245.18 22.73)"><tspan x="0" y="0">ﬁ</tspan></text>
    <text class="cls-1" transform="translate(250.31 22.73)"><tspan x="0" y="0">x</tspan></text>
    <text class="cls-1" transform="translate(272.85 22.73)"><tspan x="0" y="0">S</tspan></text>
    <text class="cls-1" transform="translate(277.97 22.73)"><tspan x="0" y="0">i</tspan></text>
    <text class="cls-1" transform="translate(280.54 22.73)"><tspan x="0" y="0">z</tspan></text>
    <text class="cls-1" transform="translate(284.63 22.73)"><tspan x="0" y="0">e</tspan></text>
    <text class="cls-1" transform="translate(291.54 22.73)"><tspan x="0" y="0">(</tspan></text>
    <text class="cls-1" transform="translate(295.12 22.73)"><tspan x="0" y="0">b</tspan></text>
    <text class="cls-1" transform="translate(300.25 22.73)"><tspan x="0" y="0">y</tspan></text>
    <text class="cls-1" transform="translate(304.85 22.73)"><tspan x="0" y="0">t</tspan></text>
    <text class="cls-1" transform="translate(307.92 22.73)"><tspan x="0" y="0">e</tspan></text>
    <text class="cls-1" transform="translate(312.53 22.73)"><tspan x="0" y="0">s</tspan></text>
    <text class="cls-1" transform="translate(316.12 22.73)"><tspan x="0" y="0">)</tspan></text>
  </g>
  <path class="cls-6" d="M10.85,27.96h308.85"/>
  <g class="cls-2">
    <text class="cls-5" transform="translate(10.85 39.16)"><tspan x="0" y="0">c</tspan></text>
    <text class="cls-5" transform="translate(15.82 39.16)"><tspan x="0" y="0">h</tspan></text>
    <text class="cls-5" transform="translate(20.78 39.16)"><tspan x="0" y="0">a</tspan></text>
    <text class="cls-5" transform="translate(25.75 39.16)"><tspan x="0" y="0">r</tspan></text>
  </g>
  <g class="cls-2">
    <text class="cls-1" transform="translate(82.8 39.16)"><tspan x="0" y="0">B</tspan></text>
    <text class="cls-1" transform="translate(89.45 39.16)"><tspan x="0" y="0">y</tspan></text>
    <text class="cls-1" transform="translate(94.06 39.16)"><tspan x="0" y="0">t</tspan></text>
    <text class="cls-1" transform="translate(97.13 39.16)"><tspan x="0" y="0">e</tspan></text>
  </g>
  <g class="cls-2">
    <text class="cls-5" transform="translate(209.78 39.16)"><tspan x="0" y="0">b</tspan></text>
  </g>
  <g class="cls-2">
    <text class="cls-1" transform="translate(293.97 39.16)"><tspan x="0" y="0">1</tspan></text>
  </g>
  <g class="cls-2">
    <text class="cls-5" transform="translate(10.85 52.12)"><tspan x="0" y="0">s</tspan></text>
    <text class="cls-5" transform="translate(15.82 52.12)"><tspan x="0" y="0">h</tspan></text>
    <text class="cls-5" transform="translate(20.78 52.12)"><tspan x="0" y="0">o</tspan></text>
    <text class="cls-5" transform="translate(25.75 52.12)"><tspan x="0" y="0">r</tspan></text>
    <text class="cls-5" transform="translate(30.72 52.12)"><tspan x="0" y="0">t</tspan></text>
  </g>
  <g class="cls-2">
    <text class="cls-3" transform="translate(82.8 52.12)"><tspan x="0" y="0">W</tspan></text>
    <text class="cls-1" transform="translate(91.33 52.12)"><tspan x="0" y="0">o</tspan></text>
    <text class="cls-1" transform="translate(96.46 52.12)"><tspan x="0" y="0">r</tspan></text>
    <text class="cls-1" transform="translate(100.04 52.12)"><tspan x="0" y="0">d</tspan></text>
  </g>
  <g class="cls-2">
    <text class="cls-5" transform="translate(209.78 52.12)"><tspan x="0" y="0">w</tspan></text>
  </g>
  <g class="cls-2">
    <text class="cls-1" transform="translate(293.97 52.12)"><tspan x="0" y="0">2</tspan></text>
  </g>
  <g class="cls-2">
    <text class="cls-5" transform="translate(10.85 65.07)"><tspan x="0" y="0">i</tspan></text>
    <text class="cls-5" transform="translate(15.82 65.07)"><tspan x="0" y="0">n</tspan></text>
    <text class="cls-5" transform="translate(20.78 65.07)"><tspan x="0" y="0">t</tspan></text>
  </g>
  <g class="cls-2">
    <text class="cls-1" transform="translate(82.8 65.07)"><tspan x="0" y="0">D</tspan></text>
    <text class="cls-1" transform="translate(90.48 65.07)"><tspan x="0" y="0">o</tspan></text>
    <text class="cls-1" transform="translate(95.6 65.07)"><tspan x="0" y="0">u</tspan></text>
    <text class="cls-1" transform="translate(100.72 65.07)"><tspan x="0" y="0">b</tspan></text>
    <text class="cls-1" transform="translate(105.85 65.07)"><tspan x="0" y="0">l</tspan></text>
    <text class="cls-1" transform="translate(108.41 65.07)"><tspan x="0" y="0">e</tspan></text>
    <text class="cls-1" transform="translate(115.32 65.07)"><tspan x="0" y="0">w</tspan></text>
    <text class="cls-1" transform="translate(121.97 65.07)"><tspan x="0" y="0">o</tspan></text>
    <text class="cls-1" transform="translate(127.1 65.07)"><tspan x="0" y="0">r</tspan></text>
    <text class="cls-1" transform="translate(130.68 65.07)"><tspan x="0" y="0">d</tspan></text>
  </g>
  <g class="cls-2">
    <text class="cls-5" transform="translate(209.78 65.07)"><tspan x="0" y="0">l</tspan></text>
  </g>
  <g class="cls-2">
    <text class="cls-1" transform="translate(293.97 65.07)"><tspan x="0" y="0">4</tspan></text>
  </g>
  <g class="cls-2">
    <text class="cls-5" transform="translate(10.85 78.02)"><tspan x="0" y="0">l</tspan></text>
    <text class="cls-5" transform="translate(15.82 78.02)"><tspan x="0" y="0">o</tspan></text>
    <text class="cls-5" transform="translate(20.78 78.02)"><tspan x="0" y="0">n</tspan></text>
    <text class="cls-5" transform="translate(25.75 78.02)"><tspan x="0" y="0">g</tspan></text>
  </g>
  <g class="cls-2">
    <text class="cls-1" transform="translate(82.8 78.02)"><tspan x="0" y="0">Q</tspan></text>
    <text class="cls-1" transform="translate(90.48 78.02)"><tspan x="0" y="0">u</tspan></text>
    <text class="cls-1" transform="translate(95.6 78.02)"><tspan x="0" y="0">a</tspan></text>
    <text class="cls-1" transform="translate(100.21 78.02)"><tspan x="0" y="0">d</tspan></text>
    <text class="cls-1" transform="translate(107.64 78.02)"><tspan x="0" y="0">w</tspan></text>
    <text class="cls-1" transform="translate(114.29 78.02)"><tspan x="0" y="0">o</tspan></text>
    <text class="cls-1" transform="translate(119.41 78.02)"><tspan x="0" y="0">r</tspan></text>
    <text class="cls-1" transform="translate(123 78.02)"><tspan x="0" y="0">d</tspan></text>
  </g>
  <g class="cls-2">
    <text class="cls-5" transform="translate(209.78 78.02)"><tspan x="0" y="0">q</tspan></text>
  </g>
  <g class="cls-2">
    <text class="cls-1" transform="translate(293.97 78.02)"><tspan x="0" y="0">8</tspan></text>
  </g>
  <g class="cls-2">
    <text class="cls-5" transform="translate(10.85 90.97)"><tspan x="0" y="0">c</tspan></text>
    <text class="cls-5" transform="translate(15.82 90.97)"><tspan x="0" y="0">h</tspan></text>
    <text class="cls-5" transform="translate(20.78 90.97)"><tspan x="0" y="0">a</tspan></text>
    <text class="cls-5" transform="translate(25.75 90.97)"><tspan x="0" y="0">r</tspan></text>
    <text class="cls-5" transform="translate(33.49 90.97)"><tspan x="0" y="0">*</tspan></text>
  </g>
  <g class="cls-2">
    <text class="cls-1" transform="translate(82.8 90.97)"><tspan x="0" y="0">Q</tspan></text>
    <text class="cls-1" transform="translate(90.48 90.97)"><tspan x="0" y="0">u</tspan></text>
    <text class="cls-1" transform="translate(95.6 90.97)"><tspan x="0" y="0">a</tspan></text>
    <text class="cls-1" transform="translate(100.21 90.97)"><tspan x="0" y="0">d</tspan></text>
    <text class="cls-1" transform="translate(107.64 90.97)"><tspan x="0" y="0">w</tspan></text>
    <text class="cls-1" transform="translate(114.29 90.97)"><tspan x="0" y="0">o</tspan></text>
    <text class="cls-1" transform="translate(119.41 90.97)"><tspan x="0" y="0">r</tspan></text>
    <text class="cls-1" transform="translate(123 90.97)"><tspan x="0" y="0">d</tspan></text>
  </g>
  <g class="cls-2">
    <text class="cls-5" transform="translate(209.78 90.97)"><tspan x="0" y="0">q</tspan></text>
  </g>
  <g class="cls-2">
    <text class="cls-1" transform="translate(293.97 90.97)"><tspan x="0" y="0">8</tspan></text>
  </g>
  <g class="cls-2">
    <text class="cls-5" transform="translate(10.85 103.92)"><tspan x="0" y="0">f</tspan></text>
    <text class="cls-5" transform="translate(15.82 103.92)"><tspan x="0" y="0">l</tspan></text>
    <text class="cls-5" transform="translate(20.78 103.92)"><tspan x="0" y="0">o</tspan></text>
    <text class="cls-5" transform="translate(25.75 103.92)"><tspan x="0" y="0">a</tspan></text>
    <text class="cls-5" transform="translate(30.72 103.92)"><tspan x="0" y="0">t</tspan></text>
  </g>
  <g class="cls-2">
    <text class="cls-1" transform="translate(82.8 103.92)"><tspan x="0" y="0">S</tspan></text>
    <text class="cls-1" transform="translate(87.92 103.92)"><tspan x="0" y="0">i</tspan></text>
    <text class="cls-1" transform="translate(90.49 103.92)"><tspan x="0" y="0">n</tspan></text>
    <text class="cls-1" transform="translate(95.61 103.92)"><tspan x="0" y="0">g</tspan></text>
    <text class="cls-1" transform="translate(100.22 103.92)"><tspan x="0" y="0">l</tspan></text>
    <text class="cls-1" transform="translate(102.78 103.92)"><tspan x="0" y="0">e</tspan></text>
    <text class="cls-1" transform="translate(109.69 103.92)"><tspan x="0" y="0">p</tspan></text>
    <text class="cls-1" transform="translate(114.81 103.92)"><tspan x="0" y="0">r</tspan></text>
    <text class="cls-1" transform="translate(118.4 103.92)"><tspan x="0" y="0">e</tspan></text>
    <text class="cls-1" transform="translate(123.01 103.92)"><tspan x="0" y="0">c</tspan></text>
    <text class="cls-1" transform="translate(127.1 103.92)"><tspan x="0" y="0">i</tspan></text>
    <text class="cls-1" transform="translate(129.66 103.92)"><tspan x="0" y="0">s</tspan></text>
    <text class="cls-1" transform="translate(133.25 103.92)"><tspan x="0" y="0">i</tspan></text>
    <text class="cls-1" transform="translate(135.81 103.92)"><tspan x="0" y="0">o</tspan></text>
    <text class="cls-1" transform="translate(140.93 103.92)"><tspan x="0" y="0">n</tspan></text>
  </g>
  <g class="cls-2">
    <text class="cls-5" transform="translate(209.78 103.92)"><tspan x="0" y="0">s</tspan></text>
  </g>
  <g class="cls-2">
    <text class="cls-1" transform="translate(293.97 103.92)"><tspan x="0" y="0">4</tspan></text>
  </g>
  <g class="cls-2">
    <text class="cls-5" transform="translate(10.85 116.87)"><tspan x="0" y="0">d</tspan></text>
    <text class="cls-5" transform="translate(15.82 116.87)"><tspan x="0" y="0">o</tspan></text>
    <text class="cls-5" transform="translate(20.78 116.87)"><tspan x="0" y="0">u</tspan></text>
    <text class="cls-5" transform="translate(25.75 116.87)"><tspan x="0" y="0">b</tspan></text>
    <text class="cls-5" transform="translate(30.72 116.87)"><tspan x="0" y="0">l</tspan></text>
    <text class="cls-5" transform="translate(35.69 116.87)"><tspan x="0" y="0">e</tspan></text>
  </g>
  <g class="cls-2">
    <text class="cls-1" transform="translate(82.8 116.87)"><tspan x="0" y="0">D</tspan></text>
    <text class="cls-1" transform="translate(90.48 116.87)"><tspan x="0" y="0">o</tspan></text>
    <text class="cls-1" transform="translate(95.6 116.87)"><tspan x="0" y="0">u</tspan></text>
    <text class="cls-1" transform="translate(100.72 116.87)"><tspan x="0" y="0">b</tspan></text>
    <text class="cls-1" transform="translate(105.85 116.87)"><tspan x="0" y="0">l</tspan></text>
    <text class="cls-1" transform="translate(108.41 116.87)"><tspan x="0" y="0">e</tspan></text>
    <text class="cls-1" transform="translate(115.32 116.87)"><tspan x="0" y="0">p</tspan></text>
    <text class="cls-1" transform="translate(120.45 116.87)"><tspan x="0" y="0">r</tspan></text>
    <text class="cls-1" transform="translate(124.03 116.87)"><tspan x="0" y="0">e</tspan></text>
    <text class="cls-1" transform="translate(128.64 116.87)"><tspan x="0" y="0">c</tspan></text>
    <text class="cls-1" transform="translate(132.73 116.87)"><tspan x="0" y="0">i</tspan></text>
    <text class="cls-1" transform="translate(135.29 116.87)"><tspan x="0" y="0">s</tspan></text>
    <text class="cls-1" transform="translate(138.88 116.87)"><tspan x="0" y="0">i</tspan></text>
    <text class="cls-1" transform="translate(141.44 116.87)"><tspan x="0" y="0">o</tspan></text>
    <text class="cls-1" transform="translate(146.56 116.87)"><tspan x="0" y="0">n</tspan></text>
  </g>
  <g class="cls-2">
    <text class="cls-5" transform="translate(209.78 116.87)"><tspan x="0" y="0">l</tspan></text>
  </g>
  <g class="cls-2">
    <text class="cls-1" transform="translate(293.97 116.87)"><tspan x="0" y="0">8</tspan></text>
  </g>
  <path class="cls-6" d="M10.85,122.1h308.85"/>
</svg>