<?xml version="1.0" encoding="UTF-8"?>
<svg id="_图层_1" data-name=" 图层 1" xmlns="http://www.w3.org/2000/svg" viewBox="0 0 179 49.15">
  <defs>
    <style>
      .cls-1 {
        fill: #fff;
      }

      .cls-2, .cls-3 {
        font-size: 6px;
      }

      .cls-2, .cls-3, .cls-4, .cls-5, .cls-6, .cls-7 {
        isolation: isolate;
      }

      .cls-2, .cls-3, .cls-4, .cls-6, .cls-7 {
        fill: #231f20;
      }

      .cls-2, .cls-7 {
        font-family: ArialMT, Arial;
      }

      .cls-3, .cls-4, .cls-6 {
        font-family: Arial-ItalicMT, Arial;
        font-style: italic;
      }

      .cls-4, .cls-6, .cls-7 {
        font-size: 8px;
      }

      .cls-8 {
        stroke-linecap: round;
      }

      .cls-8, .cls-9 {
        fill: none;
        stroke: #231f20;
        stroke-width: .5px;
      }

      .cls-6 {
        letter-spacing: -.04em;
      }
    </style>
  </defs>
  <g class="cls-5">
    <g class="cls-5">
      <text class="cls-3" transform="translate(45.44 26.99)"><tspan x="0" y="0">m</tspan></text>
    </g>
  </g>
  <g class="cls-5">
    <g class="cls-5">
      <text class="cls-2" transform="translate(50.56 26.99)"><tspan x="0" y="0">–</tspan></text>
    </g>
    <g class="cls-5">
      <text class="cls-2" transform="translate(53.9 26.99)"><tspan x="0" y="0">1</tspan></text>
    </g>
    <g class="cls-5">
      <text class="cls-2" transform="translate(171.21 26.99)"><tspan x="0" y="0">0</tspan></text>
    </g>
  </g>
  <g class="cls-5">
    <g class="cls-5">
      <text class="cls-4" transform="translate(59.27 10.24)"><tspan x="0" y="0">t</tspan></text>
    </g>
  </g>
  <g class="cls-5">
    <g class="cls-5">
      <text class="cls-7" transform="translate(63.71 10.24)"><tspan x="0" y="0">b</tspan></text>
    </g>
    <g class="cls-5">
      <text class="cls-7" transform="translate(68.16 10.24)"><tspan x="0" y="0">i</tspan></text>
    </g>
    <g class="cls-5">
      <text class="cls-7" transform="translate(69.94 10.24)"><tspan x="0" y="0">t</tspan></text>
    </g>
    <g class="cls-5">
      <text class="cls-7" transform="translate(72.16 10.24)"><tspan x="0" y="0">s</tspan></text>
    </g>
  </g>
  <g class="cls-5">
    <g class="cls-5">
      <text class="cls-6" transform="translate(7.15 19.52)"><tspan x="0" y="0">A</tspan></text>
    </g>
    <g class="cls-5">
      <text class="cls-4" transform="translate(12.49 19.52)"><tspan x="0" y="0">d</tspan></text>
    </g>
    <g class="cls-5">
      <text class="cls-4" transform="translate(16.94 19.52)"><tspan x="0" y="0">d</tspan></text>
    </g>
    <g class="cls-5">
      <text class="cls-4" transform="translate(21.39 19.52)"><tspan x="0" y="0">r</tspan></text>
    </g>
    <g class="cls-5">
      <text class="cls-4" transform="translate(24.05 19.52)"><tspan x="0" y="0">e</tspan></text>
    </g>
    <g class="cls-5">
      <text class="cls-4" transform="translate(28.5 19.52)"><tspan x="0" y="0">s</tspan></text>
    </g>
    <g class="cls-5">
      <text class="cls-4" transform="translate(32.5 19.52)"><tspan x="0" y="0">s</tspan></text>
    </g>
    <g class="cls-5">
      <text class="cls-4" transform="translate(36.5 19.52)"><tspan x="0" y="0">:</tspan></text>
    </g>
    <g class="cls-5">
      <text class="cls-4" transform="translate(60.85 44.02)"><tspan x="0" y="0">T</tspan></text>
    </g>
    <g class="cls-5">
      <text class="cls-4" transform="translate(64.78 44.02)"><tspan x="0" y="0">a</tspan></text>
    </g>
    <g class="cls-5">
      <text class="cls-4" transform="translate(69.23 44.02)"><tspan x="0" y="0">g</tspan></text>
    </g>
    <g class="cls-5">
      <text class="cls-4" transform="translate(93.15 44.02)"><tspan x="0" y="0">S</tspan></text>
    </g>
    <g class="cls-5">
      <text class="cls-4" transform="translate(98.49 44.02)"><tspan x="0" y="0">e</tspan></text>
    </g>
    <g class="cls-5">
      <text class="cls-4" transform="translate(102.94 44.02)"><tspan x="0" y="0">t</tspan></text>
    </g>
    <g class="cls-5">
      <text class="cls-4" transform="translate(107.39 44.02)"><tspan x="0" y="0">i</tspan></text>
    </g>
    <g class="cls-5">
      <text class="cls-4" transform="translate(109.16 44.02)"><tspan x="0" y="0">n</tspan></text>
    </g>
    <g class="cls-5">
      <text class="cls-4" transform="translate(113.61 44.02)"><tspan x="0" y="0">d</tspan></text>
    </g>
    <g class="cls-5">
      <text class="cls-4" transform="translate(118.06 44.02)"><tspan x="0" y="0">e</tspan></text>
    </g>
    <g class="cls-5">
      <text class="cls-4" transform="translate(122.27 44.02)"><tspan x="0" y="0">x</tspan></text>
    </g>
    <g class="cls-5">
      <text class="cls-4" transform="translate(131.44 44.24)"><tspan x="0" y="0">B</tspan></text>
    </g>
    <g class="cls-5">
      <text class="cls-4" transform="translate(136.78 44.24)"><tspan x="0" y="0">l</tspan></text>
    </g>
    <g class="cls-5">
      <text class="cls-4" transform="translate(138.55 44.24)"><tspan x="0" y="0">o</tspan></text>
    </g>
    <g class="cls-5">
      <text class="cls-4" transform="translate(143 44.24)"><tspan x="0" y="0">c</tspan></text>
    </g>
    <g class="cls-5">
      <text class="cls-4" transform="translate(146.84 44.24)"><tspan x="0" y="0">k</tspan></text>
    </g>
    <g class="cls-5">
      <text class="cls-4" transform="translate(153.07 44.24)"><tspan x="0" y="0">o</tspan></text>
    </g>
    <g class="cls-5">
      <text class="cls-4" transform="translate(157.51 44.24)"><tspan x="0" y="0">f</tspan></text>
    </g>
    <g class="cls-5">
      <text class="cls-4" transform="translate(159.74 44.24)"><tspan x="0" y="0">f</tspan></text>
    </g>
    <g class="cls-5">
      <text class="cls-4" transform="translate(161.96 44.24)"><tspan x="0" y="0">s</tspan></text>
    </g>
    <g class="cls-5">
      <text class="cls-4" transform="translate(165.96 44.24)"><tspan x="0" y="0">e</tspan></text>
    </g>
    <g class="cls-5">
      <text class="cls-4" transform="translate(170.41 44.24)"><tspan x="0" y="0">t</tspan></text>
    </g>
    <g class="cls-5">
      <text class="cls-4" transform="translate(100.37 10.24)"><tspan x="0" y="0">s</tspan></text>
    </g>
  </g>
  <g class="cls-5">
    <g class="cls-5">
      <text class="cls-7" transform="translate(106.59 10.24)"><tspan x="0" y="0">b</tspan></text>
    </g>
    <g class="cls-5">
      <text class="cls-7" transform="translate(111.04 10.24)"><tspan x="0" y="0">i</tspan></text>
    </g>
    <g class="cls-5">
      <text class="cls-7" transform="translate(112.82 10.24)"><tspan x="0" y="0">t</tspan></text>
    </g>
    <g class="cls-5">
      <text class="cls-7" transform="translate(115.04 10.24)"><tspan x="0" y="0">s</tspan></text>
    </g>
  </g>
  <g class="cls-5">
    <g class="cls-5">
      <text class="cls-4" transform="translate(142.15 10.24)"><tspan x="0" y="0">b</tspan></text>
    </g>
  </g>
  <g class="cls-5">
    <g class="cls-5">
      <text class="cls-7" transform="translate(148.82 10.24)"><tspan x="0" y="0">b</tspan></text>
    </g>
    <g class="cls-5">
      <text class="cls-7" transform="translate(153.27 10.24)"><tspan x="0" y="0">i</tspan></text>
    </g>
    <g class="cls-5">
      <text class="cls-7" transform="translate(155.04 10.24)"><tspan x="0" y="0">t</tspan></text>
    </g>
    <g class="cls-5">
      <text class="cls-7" transform="translate(157.27 10.24)"><tspan x="0" y="0">s</tspan></text>
    </g>
  </g>
  <path class="cls-1" d="M46.71,20.62h42v-8h-42v8Z"/>
  <path class="cls-8" d="M88.71,20.62h-42v-8h42v8Z"/>
  <path class="cls-1" d="M88.71,20.62h42v-8h-42v8Z"/>
  <path class="cls-8" d="M130.72,20.62h-42v-8h42v8Z"/>
  <path class="cls-1" d="M130.72,20.62h42v-8h-42s0,8,0,8Z"/>
  <path class="cls-8" d="M172.72,20.62h-42v-8h42v8Z"/>
  <path class="cls-9" d="M172.49,29.45c0,1.53-1.24,2.77-2.77,2.77h-15.24c-1.53,0-2.76,1.24-2.76,2.77,0-1.53-1.24-2.77-2.77-2.77h-15.05c-1.53,0-2.77-1.24-2.77-2.77"/>
  <path class="cls-9" d="M130.22,29.45c0,1.53-1.24,2.77-2.77,2.77h-15.24c-1.53,0-2.76,1.24-2.76,2.77,0-1.53-1.24-2.77-2.77-2.77h-15.06c-1.53,0-2.77-1.24-2.77-2.77"/>
  <path class="cls-9" d="M87.94,29.45c0,1.53-1.24,2.77-2.77,2.77h-15.25c-1.53,0-2.76,1.24-2.76,2.77,0-1.53-1.24-2.77-2.77-2.77h-15.06c-1.53,0-2.77-1.24-2.77-2.77"/>
</svg>